<svg width="20" height="22" viewBox="0 0 20 22" fill="none" xmlns="http://www.w3.org/2000/svg">
<path d="M12.9999 6L6.49995 12.5C6.10212 12.8978 5.87863 13.4374 5.87863 14C5.87863 14.5626 6.10212 15.1022 6.49995 15.5C6.89777 15.8978 7.43734 16.1213 7.99995 16.1213C8.56256 16.1213 9.10212 15.8978 9.49995 15.5L15.9999 9C16.7956 8.20435 17.2426 7.12521 17.2426 6C17.2426 4.87478 16.7956 3.79564 15.9999 3C15.2043 2.20435 14.1252 1.75735 12.9999 1.75735C11.8747 1.75735 10.7956 2.20435 9.99995 3L3.49995 9.5C2.30647 10.6935 1.63599 12.3122 1.63599 14C1.63599 15.6878 2.30647 17.3065 3.49995 18.5C4.69342 19.6935 6.31212 20.364 7.99995 20.364C9.68777 20.364 11.3065 19.6935 12.4999 18.5L18.9999 12" stroke="#7B7C80" stroke-width="2" stroke-linecap="round" stroke-linejoin="round"/>
</svg>
