<svg width="20" height="20" viewBox="0 0 20 20" fill="none" xmlns="http://www.w3.org/2000/svg">
<path d="M8.325 2.317L8.81084 2.43514L8.81091 2.43488L8.325 2.317ZM11.675 2.317L12.1609 2.19926L12.1609 2.19912L11.675 2.317ZM14.248 3.383L13.9879 2.956L13.9877 2.95609L14.248 3.383ZM16.618 5.753L17.045 6.0131L17.0451 6.01301L16.618 5.753ZM17.683 8.325L17.5649 8.81084L17.5651 8.81091L17.683 8.325ZM17.683 11.675L17.8007 12.1609L17.8009 12.1609L17.683 11.675ZM16.617 14.248L17.044 13.9879L17.0439 13.9877L16.617 14.248ZM14.247 16.618L13.9869 17.045L13.987 17.0451L14.247 16.618ZM11.675 17.683L11.1892 17.5649L11.1891 17.5651L11.675 17.683ZM8.325 17.683L7.83906 17.8007L7.83909 17.8009L8.325 17.683ZM5.752 16.617L6.01213 17.044L6.01229 17.0439L5.752 16.617ZM3.382 14.247L2.95498 13.9869L2.95492 13.987L3.382 14.247ZM2.317 11.675L2.43515 11.1892L2.43488 11.1891L2.317 11.675ZM2.317 8.325L2.19926 7.83906L2.19912 7.83909L2.317 8.325ZM3.383 5.752L2.956 6.01213L2.95609 6.01229L3.383 5.752ZM5.753 3.382L5.49299 3.80908L5.49324 3.80923L5.753 3.382ZM8.81091 2.43488C9.1133 1.18837 10.8867 1.18837 11.1891 2.43488L12.1609 2.19912C11.6113 -0.0663736 8.3887 -0.0663736 7.83909 2.19912L8.81091 2.43488ZM11.1891 2.43474C11.2715 2.77505 11.4332 3.09108 11.6608 3.35711L12.4206 2.70689C12.2953 2.56048 12.2063 2.38655 12.1609 2.19926L11.1891 2.43474ZM11.6608 3.35711C11.8885 3.62314 12.1758 3.83165 12.4993 3.96567L12.882 3.04182C12.704 2.96806 12.5459 2.8533 12.4206 2.70689L11.6608 3.35711ZM12.4993 3.96567C12.8228 4.09969 13.1733 4.15544 13.5224 4.12837L13.4451 3.13137C13.253 3.14626 13.0601 3.11558 12.882 3.04182L12.4993 3.96567ZM13.5224 4.12837C13.8715 4.10131 14.2093 3.99219 14.5083 3.80991L13.9877 2.95609C13.8232 3.05642 13.6373 3.11647 13.4451 3.13137L13.5224 4.12837ZM14.5081 3.81C15.6035 3.14269 16.8584 4.39657 16.1909 5.49299L17.0451 6.01301C18.2576 4.02143 15.9785 1.74331 13.9879 2.956L14.5081 3.81ZM16.191 5.4929C16.009 5.79174 15.9 6.12932 15.873 6.47819L16.87 6.55536C16.8849 6.36336 16.9448 6.17757 17.045 6.0131L16.191 5.4929ZM15.873 6.47819C15.846 6.82706 15.9017 7.17737 16.0356 7.50067L16.9595 7.11809C16.8858 6.94016 16.8552 6.74736 16.87 6.55536L15.873 6.47819ZM16.0356 7.50067C16.1694 7.82396 16.3777 8.1111 16.6434 8.33876L17.294 7.57934C17.1478 7.45405 17.0332 7.29602 16.9595 7.11809L16.0356 7.50067ZM16.6434 8.33876C16.9092 8.56642 17.2248 8.72816 17.5649 8.81084L17.8011 7.83916C17.614 7.79365 17.4403 7.70464 17.294 7.57934L16.6434 8.33876ZM17.5651 8.81091C18.8116 9.1133 18.8116 10.8867 17.5651 11.1891L17.8009 12.1609C20.0664 11.6113 20.0664 8.3887 17.8009 7.83909L17.5651 8.81091ZM17.5653 11.1891C17.225 11.2715 16.9089 11.4332 16.6429 11.6608L17.2931 12.4206C17.4395 12.2953 17.6135 12.2063 17.8007 12.1609L17.5653 11.1891ZM16.6429 11.6608C16.3769 11.8885 16.1684 12.1758 16.0343 12.4993L16.9582 12.882C17.0319 12.704 17.1467 12.5459 17.2931 12.4206L16.6429 11.6608ZM16.0343 12.4993C15.9003 12.8228 15.8446 13.1733 15.8716 13.5224L16.8686 13.4451C16.8537 13.253 16.8844 13.0601 16.9582 12.882L16.0343 12.4993ZM15.8716 13.5224C15.8987 13.8715 16.0078 14.2093 16.1901 14.5083L17.0439 13.9877C16.9436 13.8232 16.8835 13.6373 16.8686 13.4451L15.8716 13.5224ZM16.19 14.5081C16.8573 15.6035 15.6034 16.8584 14.507 16.1909L13.987 17.0451C15.9786 18.2576 18.2567 15.9785 17.044 13.9879L16.19 14.5081ZM14.5071 16.191C14.2083 16.009 13.8707 15.9 13.5218 15.873L13.4446 16.87C13.6366 16.8849 13.8224 16.9448 13.9869 17.045L14.5071 16.191ZM13.5218 15.873C13.1729 15.846 12.8226 15.9017 12.4993 16.0356L12.8819 16.9595C13.0598 16.8858 13.2526 16.8552 13.4446 16.87L13.5218 15.873ZM12.4993 16.0356C12.176 16.1694 11.8889 16.3777 11.6612 16.6434L12.4207 17.294C12.5459 17.1478 12.704 17.0332 12.8819 16.9595L12.4993 16.0356ZM11.6612 16.6434C11.4336 16.9092 11.2718 17.2248 11.1892 17.5649L12.1608 17.8011C12.2063 17.614 12.2954 17.4403 12.4207 17.294L11.6612 16.6434ZM11.1891 17.5651C10.8867 18.8116 9.1133 18.8116 8.81091 17.5651L7.83909 17.8009C8.3887 20.0664 11.6113 20.0664 12.1609 17.8009L11.1891 17.5651ZM8.81094 17.5653C8.72848 17.225 8.56684 16.9089 8.33916 16.6429L7.57941 17.2931C7.70472 17.4395 7.79368 17.6135 7.83906 17.8007L8.81094 17.5653ZM8.33916 16.6429C8.11149 16.3769 7.82421 16.1684 7.50072 16.0343L7.11797 16.9582C7.29601 17.0319 7.45411 17.1467 7.57941 17.2931L8.33916 16.6429ZM7.50072 16.0343C7.17724 15.9003 6.82667 15.8446 6.47756 15.8716L6.55486 16.8686C6.747 16.8537 6.93994 16.8844 7.11797 16.9582L7.50072 16.0343ZM6.47756 15.8716C6.12846 15.8987 5.79067 16.0078 5.49171 16.1901L6.01229 17.0439C6.17683 16.9436 6.36273 16.8835 6.55486 16.8686L6.47756 15.8716ZM5.49187 16.19C4.39648 16.8573 3.14157 15.6034 3.80908 14.507L2.95492 13.987C1.74243 15.9786 4.02152 18.2567 6.01213 17.044L5.49187 16.19ZM3.80902 14.5071C3.99105 14.2083 4.09999 13.8707 4.12699 13.5218L3.12998 13.4446C3.11511 13.6366 3.05516 13.8224 2.95498 13.9869L3.80902 14.5071ZM4.12699 13.5218C4.154 13.1729 4.0983 12.8226 3.96443 12.4993L3.04051 12.8819C3.11418 13.0598 3.14484 13.2526 3.12998 13.4446L4.12699 13.5218ZM3.96443 12.4993C3.83057 12.176 3.62231 11.8889 3.35658 11.6612L2.70597 12.4207C2.85222 12.5459 2.96683 12.704 3.04051 12.8819L3.96443 12.4993ZM3.35658 11.6612C3.09085 11.4336 2.77515 11.2718 2.43515 11.1892L2.19885 12.1608C2.38598 12.2063 2.55972 12.2954 2.70597 12.4207L3.35658 11.6612ZM2.43488 11.1891C1.18837 10.8867 1.18837 9.1133 2.43488 8.81091L2.19912 7.83909C-0.0663736 8.3887 -0.0663736 11.6113 2.19912 12.1609L2.43488 11.1891ZM2.43474 8.81094C2.77505 8.72848 3.09108 8.56684 3.35711 8.33916L2.70689 7.57941C2.56048 7.70472 2.38655 7.79368 2.19926 7.83906L2.43474 8.81094ZM3.35711 8.33916C3.62314 8.11149 3.83165 7.82421 3.96567 7.50072L3.04182 7.11797C2.96806 7.29601 2.8533 7.45411 2.70689 7.57941L3.35711 8.33916ZM3.96567 7.50072C4.09969 7.17723 4.15544 6.82667 4.12837 6.47756L3.13137 6.55486C3.14626 6.747 3.11558 6.93994 3.04182 7.11797L3.96567 7.50072ZM4.12837 6.47756C4.10131 6.12846 3.99219 5.79068 3.80991 5.49171L2.95609 6.01229C3.05642 6.17683 3.11647 6.36273 3.13137 6.55486L4.12837 6.47756ZM3.81 5.49187C3.14269 4.39648 4.39657 3.14157 5.49299 3.80908L6.01301 2.95492C4.02143 1.74243 1.74331 4.02152 2.956 6.01213L3.81 5.49187ZM5.49324 3.80923C6.78224 4.59294 8.45487 3.89902 8.81084 2.43514L7.83916 2.19886C7.64313 3.00498 6.72376 3.38706 6.01276 2.95477L5.49324 3.80923ZM12.5 10C12.5 11.3807 11.3807 12.5 10 12.5V13.5C11.933 13.5 13.5 11.933 13.5 10H12.5ZM10 12.5C8.61929 12.5 7.5 11.3807 7.5 10H6.5C6.5 11.933 8.067 13.5 10 13.5V12.5ZM7.5 10C7.5 8.61929 8.61929 7.5 10 7.5V6.5C8.067 6.5 6.5 8.067 6.5 10H7.5ZM10 7.5C11.3807 7.5 12.5 8.61929 12.5 10H13.5C13.5 8.067 11.933 6.5 10 6.5V7.5Z" fill="white"/>
</svg>
