<svg width="20" height="20" viewBox="0 0 20 20" fill="none" xmlns="http://www.w3.org/2000/svg">
<path d="M6 5.99998H3C2.46957 5.99998 1.96086 6.2107 1.58579 6.58577C1.21071 6.96084 1 7.46955 1 7.99998V17C1 17.5304 1.21071 18.0391 1.58579 18.4142C1.96086 18.7893 2.46957 19 3 19H12C12.5304 19 13.0391 18.7893 13.4142 18.4142C13.7893 18.0391 14 17.5304 14 17V14M13 3.99998L16 6.99998M6 14H9L17.5 5.49998C17.8978 5.10216 18.1213 4.56259 18.1213 3.99998C18.1213 3.43737 17.8978 2.89781 17.5 2.49998C17.1022 2.10216 16.5626 1.87866 16 1.87866C15.4374 1.87866 14.8978 2.10216 14.5 2.49998L6 11V14Z" stroke="#7B7C80" stroke-width="2" stroke-linecap="round" stroke-linejoin="round"/>
</svg>
