<svg width="21" height="21" viewBox="0 0 21 21" fill="none" xmlns="http://www.w3.org/2000/svg">
<path d="M20.0001 1L20.9406 1.33964C21.0723 0.974975 20.9813 0.567051 20.7072 0.292893C20.433 0.0187355 20.0251 -0.07224 19.6604 0.0594461L20.0001 1ZM13.5001 19L14.4092 19.4166C14.4207 19.3914 14.4312 19.3657 14.4406 19.3396L13.5001 19ZM13.0001 19.3209L13.0001 20.3209L13.0001 19.3209ZM12.5001 19L13.4092 18.5834C13.4044 18.5731 13.3996 18.5629 13.3945 18.5528L12.5001 19ZM2.00007 8.5L2.44728 7.60557C2.43716 7.60051 2.42696 7.59562 2.41667 7.59091L2.00007 8.5ZM1.6792 8L2.6792 8L1.6792 8ZM2.00007 7.5L1.66043 6.55945C1.63435 6.56886 1.60868 6.57936 1.58347 6.59091L2.00007 7.5ZM9.70718 12.7071L20.7072 1.70711L19.293 0.292893L8.29296 11.2929L9.70718 12.7071ZM19.0595 0.660356L12.5595 18.6604L14.4406 19.3396L20.9406 1.33964L19.0595 0.660356ZM12.591 18.5834C12.6269 18.5051 12.6845 18.4387 12.757 18.3921L13.8372 20.0754C14.087 19.9151 14.2855 19.6864 14.4092 19.4166L12.591 18.5834ZM12.757 18.3921C12.8295 18.3456 12.9139 18.3209 13.0001 18.3209L13.0001 20.3209C13.2969 20.3209 13.5874 20.2357 13.8372 20.0754L12.757 18.3921ZM13.0001 18.3209C13.0862 18.3209 13.1706 18.3456 13.2431 18.3921L12.1629 20.0754C12.4127 20.2357 12.7033 20.3209 13.0001 20.3209L13.0001 18.3209ZM13.2431 18.3921C13.3156 18.4387 13.3733 18.5051 13.4092 18.5834L11.591 19.4166C11.7146 19.6864 11.9131 19.9151 12.1629 20.0754L13.2431 18.3921ZM13.3945 18.5528L9.8945 11.5528L8.10564 12.4472L11.6056 19.4472L13.3945 18.5528ZM9.44728 11.1056L2.44728 7.60557L1.55286 9.39443L8.55286 12.8944L9.44728 11.1056ZM2.41667 7.59091C2.495 7.62681 2.56138 7.68444 2.60792 7.75696L0.924711 8.83715C1.08501 9.08693 1.31366 9.28545 1.58347 9.40909L2.41667 7.59091ZM2.60792 7.75696C2.65446 7.82948 2.6792 7.91383 2.6792 8H0.679199C0.679199 8.2968 0.764412 8.58736 0.924711 8.83715L2.60792 7.75696ZM2.6792 8C2.6792 8.08617 2.65446 8.17052 2.60792 8.24304L0.924711 7.16285C0.764412 7.41264 0.679199 7.7032 0.679199 8L2.6792 8ZM2.60792 8.24304C2.56138 8.31556 2.495 8.37319 2.41667 8.40909L1.58347 6.59091C1.31366 6.71455 1.08501 6.91307 0.924711 7.16285L2.60792 8.24304ZM2.33971 8.44055L20.3397 1.94055L19.6604 0.0594461L1.66043 6.55945L2.33971 8.44055Z" fill="white"/>
</svg>
