<svg width="18" height="12" viewBox="0 0 18 12" fill="none" xmlns="http://www.w3.org/2000/svg">
<path d="M1.33325 0.833313C0.780967 0.833313 0.333252 1.28103 0.333252 1.83331C0.333252 2.3856 0.780967 2.83331 1.33325 2.83331V0.833313ZM17.5833 2.83331C18.1355 2.83331 18.5833 2.3856 18.5833 1.83331C18.5833 1.28103 18.1355 0.833313 17.5833 0.833313V2.83331ZM1.33325 5.41665C0.780967 5.41665 0.333252 5.86436 0.333252 6.41665C0.333252 6.96893 0.780967 7.41665 1.33325 7.41665V5.41665ZM22.9999 7.41665C23.5522 7.41665 23.9999 6.96893 23.9999 6.41665C23.9999 5.86436 23.5522 5.41665 22.9999 5.41665V7.41665ZM1.33325 9.99998C0.780967 9.99998 0.333252 10.4477 0.333252 11C0.333252 11.5523 0.780967 12 1.33325 12V9.99998ZM17.5833 12C18.1355 12 18.5833 11.5523 18.5833 11C18.5833 10.4477 18.1355 9.99998 17.5833 9.99998V12ZM1.33325 2.83331H17.5833V0.833313H1.33325V2.83331ZM1.33325 7.41665H22.9999V5.41665H1.33325V7.41665ZM1.33325 12H17.5833V9.99998H1.33325V12Z" fill="white"/>
</svg>
